<svg xmlns="http://www.w3.org/2000/svg" viewBox="0 0 1200 630" preserveAspectRatio="xMidYMid slice">
  <defs>
    <linearGradient id="bg" x1="0" y1="0" x2="1" y2="1">
      <stop offset="0%" stop-color="#FBF7F0"/>
      <stop offset="100%" stop-color="#F4DBCB"/>
    </linearGradient>
    <radialGradient id="glow" cx="0.85" cy="0.2" r="0.6">
      <stop offset="0%" stop-color="#C8102E" stop-opacity="0.18"/>
      <stop offset="100%" stop-color="#C8102E" stop-opacity="0"/>
    </radialGradient>
  </defs>
  <rect width="1200" height="630" fill="url(#bg)"/>
  <rect width="1200" height="630" fill="url(#glow)"/>

  <!-- Maple leaf decoration -->
  <g transform="translate(950, 90) rotate(20)" opacity="0.12">
    <path d="M50 8 L54 28 L70 22 L62 38 L82 36 L66 50 L82 64 L62 62 L70 78 L54 72 L50 92 L46 72 L30 78 L38 62 L18 64 L34 50 L18 36 L38 38 L30 22 L46 28 Z" fill="#C8102E" transform="scale(3.5)"/>
  </g>

  <!-- Logo + circle -->
  <g transform="translate(72, 72)">
    <circle cx="32" cy="32" r="30" fill="#C8102E"/>
    <path d="M32 14 L34 22 L42 20 L38 27 L46 30 L38 33 L42 40 L34 38 L32 46 L30 38 L22 40 L26 33 L18 30 L26 27 L22 20 L30 22 Z" fill="#FBF7F0"/>
  </g>
  <text x="160" y="98" font-family="Georgia, serif" font-size="18" font-weight="600" fill="#C8102E" letter-spacing="3">MAPLE BEAR · BENTO GONÇALVES</text>
  <text x="160" y="125" font-family="Georgia, serif" font-size="14" fill="#5C544D" letter-spacing="1">Escola Bilíngue Canadense · Abertura 2027</text>

  <!-- Main title -->
  <text x="72" y="310" font-family="Georgia, serif" font-size="86" font-weight="400" fill="#2A2522">Bilíngue</text>
  <text x="72" y="400" font-family="Georgia, serif" font-style="italic" font-size="86" font-weight="400" fill="#C8102E">desde o primeiro</text>
  <text x="72" y="490" font-family="Georgia, serif" font-size="86" font-weight="400" fill="#2A2522">sorriso.</text>

  <!-- Footer -->
  <text x="72" y="575" font-family="Georgia, serif" font-size="20" fill="#5C544D">Educação canadense de 18 meses a 7 anos · maplebearbg.com.br</text>
</svg>
